<?xml version="1.0" standalone="no"?>
<!DOCTYPE svg PUBLIC "-//W3C//DTD SVG 20010904//EN"
 "http://www.w3.org/TR/2001/REC-SVG-20010904/DTD/svg10.dtd">
<svg version="1.0" xmlns="http://www.w3.org/2000/svg"
 width="500.000000pt" height="500.000000pt" viewBox="0 0 500.000000 500.000000"
 preserveAspectRatio="xMidYMid meet">
<metadata>
Created by potrace 1.14, written by Peter Selinger 2001-2017
</metadata>
<g transform="translate(0.000000,500.000000) scale(0.100000,-0.100000)"
fill="#000000" stroke="none">
<path d="M2325 4994 c-258 -26 -503 -79 -690 -149 -597 -221 -1105 -681 -1380
-1250 -115 -237 -194 -497 -232 -760 -23 -165 -23 -505 0 -670 64 -444 240
-859 515 -1214 83 -108 291 -315 400 -401 282 -221 623 -389 957 -474 199 -51
360 -70 605 -70 312 0 524 34 810 130 123 41 389 168 510 244 228 142 492 377
642 571 276 356 450 767 515 1214 24 165 24 505 0 670 -107 732 -494 1344
-1114 1758 -126 84 -349 197 -498 252 -137 51 -340 102 -498 126 -126 19 -448
33 -542 23z"/>
</g>
</svg>
